<svg width="86" height="19" viewBox="0 0 86 19" fill="none" xmlns="http://www.w3.org/2000/svg">
<path d="M2.576 6.922C2.576 7.23 2.56667 7.524 2.548 7.804C2.53867 8.07467 2.52467 8.28933 2.506 8.448H2.576C2.772 8.13067 3.038 7.86467 3.374 7.65C3.71933 7.43533 4.158 7.328 4.69 7.328C5.53933 7.328 6.22067 7.65467 6.734 8.308C7.25667 8.96133 7.518 9.932 7.518 11.22C7.518 12.088 7.40133 12.8113 7.168 13.39C6.93467 13.9687 6.60333 14.4073 6.174 14.706C5.74467 14.9953 5.24533 15.14 4.676 15.14C4.13467 15.14 3.696 15.0373 3.36 14.832C3.03333 14.6173 2.772 14.3653 2.576 14.076H2.464L2.198 15H1.064V4.36H2.576V6.922ZM4.298 8.532C3.878 8.532 3.542 8.62533 3.29 8.812C3.038 8.99867 2.856 9.28333 2.744 9.666C2.632 10.0487 2.576 10.534 2.576 11.122V11.234C2.576 12.102 2.69733 12.7693 2.94 13.236C3.192 13.6933 3.65867 13.922 4.34 13.922C4.872 13.922 5.27333 13.6887 5.544 13.222C5.824 12.7553 5.964 12.0833 5.964 11.206C5.964 10.3193 5.824 9.652 5.544 9.204C5.27333 8.756 4.858 8.532 4.298 8.532ZM13.2715 7.314C13.3928 7.314 13.5281 7.32333 13.6775 7.342C13.8268 7.35133 13.9528 7.36533 14.0555 7.384L13.9015 8.77C13.7988 8.742 13.6821 8.71867 13.5515 8.7C13.4208 8.68133 13.2901 8.672 13.1595 8.672C12.9075 8.672 12.6648 8.728 12.4315 8.84C12.1981 8.94267 11.9881 9.09667 11.8015 9.302C11.6148 9.498 11.4655 9.74067 11.3535 10.03C11.2415 10.3193 11.1855 10.6507 11.1855 11.024V15H9.67345V7.454H10.8635L11.0595 8.798H11.1435C11.2835 8.52733 11.4561 8.28 11.6615 8.056C11.8761 7.832 12.1188 7.65467 12.3895 7.524C12.6601 7.384 12.9541 7.314 13.2715 7.314ZM21.9556 7.454V15H20.7656L20.5556 14.006H20.4716C20.3316 14.2673 20.1403 14.482 19.8976 14.65C19.6643 14.818 19.4076 14.9393 19.1276 15.014C18.8476 15.098 18.5583 15.14 18.2596 15.14C17.7089 15.14 17.2423 15.0467 16.8596 14.86C16.4863 14.664 16.1969 14.3653 15.9916 13.964C15.7956 13.5533 15.6976 13.0307 15.6976 12.396V7.454H17.2236V12.172C17.2236 12.76 17.3356 13.1987 17.5596 13.488C17.7836 13.7773 18.1336 13.922 18.6096 13.922C19.0763 13.922 19.4403 13.8193 19.7016 13.614C19.9723 13.4087 20.1636 13.11 20.2756 12.718C20.3876 12.3167 20.4436 11.836 20.4436 11.276V7.454H21.9556ZM28.1958 7.314C29.0171 7.314 29.6471 7.53333 30.0858 7.972C30.5338 8.41067 30.7578 9.11533 30.7578 10.086V15H29.2458V10.296C29.2458 9.708 29.1291 9.26933 28.8958 8.98C28.6718 8.68133 28.3218 8.532 27.8458 8.532C27.1458 8.532 26.6651 8.76067 26.4038 9.218C26.1424 9.67533 26.0118 10.3333 26.0118 11.192V15H24.4998V7.454H25.6898L25.8998 8.462H25.9838C26.1424 8.20067 26.3338 7.986 26.5578 7.818C26.7818 7.65 27.0338 7.524 27.3138 7.44C27.5938 7.356 27.8878 7.314 28.1958 7.314ZM36.1856 15.14C35.523 15.14 34.9396 15.0047 34.4356 14.734C33.941 14.4633 33.5536 14.0433 33.2736 13.474C33.003 12.8953 32.8676 12.1627 32.8676 11.276C32.8676 10.3427 33.017 9.58667 33.3156 9.008C33.6143 8.42933 34.0203 8.00467 34.5336 7.734C35.047 7.454 35.635 7.314 36.2976 7.314C36.6896 7.314 37.063 7.36067 37.4176 7.454C37.7816 7.538 38.0803 7.636 38.3136 7.748L37.8516 8.938C37.6183 8.84467 37.3663 8.76067 37.0956 8.686C36.825 8.61133 36.5683 8.574 36.3256 8.574C35.8963 8.574 35.5416 8.67667 35.2616 8.882C34.991 9.078 34.7856 9.37667 34.6456 9.778C34.5056 10.17 34.4356 10.6647 34.4356 11.262C34.4356 11.8313 34.5056 12.312 34.6456 12.704C34.7856 13.096 34.991 13.3947 35.2616 13.6C35.5416 13.796 35.8776 13.894 36.2696 13.894C36.6523 13.894 36.993 13.8473 37.2916 13.754C37.5996 13.6607 37.8843 13.5393 38.1456 13.39V14.678C37.8843 14.8367 37.5996 14.9533 37.2916 15.028C36.9836 15.1027 36.615 15.14 36.1856 15.14ZM41.7131 7.202C41.7131 7.43533 41.7038 7.66867 41.6851 7.902C41.6758 8.13533 41.6618 8.32667 41.6431 8.476H41.7271C41.8764 8.21467 42.0584 8 42.2731 7.832C42.4971 7.664 42.7444 7.538 43.0151 7.454C43.2951 7.37 43.5798 7.328 43.8691 7.328C44.4198 7.328 44.8864 7.426 45.2691 7.622C45.6611 7.80867 45.9551 8.10733 46.1511 8.518C46.3564 8.91933 46.4591 9.442 46.4591 10.086V15H44.9331V10.296C44.9331 9.708 44.8211 9.26933 44.5971 8.98C44.3731 8.68133 44.0231 8.532 43.5471 8.532C43.0898 8.532 42.7258 8.63467 42.4551 8.84C42.1844 9.04533 41.9931 9.34867 41.8811 9.75C41.7691 10.142 41.7131 10.6273 41.7131 11.206V15H40.2011V4.36H41.7131V7.202ZM57.6009 12.872C57.6009 13.3667 57.4889 13.782 57.2649 14.118C57.0409 14.454 56.7143 14.7107 56.2849 14.888C55.8556 15.056 55.3283 15.14 54.7029 15.14C54.2083 15.14 53.7743 15.098 53.4009 15.014C53.0369 14.9393 52.7009 14.8273 52.3929 14.678V13.376C52.7196 13.5347 53.0929 13.6793 53.5129 13.81C53.9329 13.9313 54.3343 13.992 54.7169 13.992C55.2116 13.992 55.5709 13.9033 55.7949 13.726C56.0189 13.5487 56.1309 13.3107 56.1309 13.012C56.1309 12.844 56.0843 12.6947 55.9909 12.564C55.9069 12.424 55.7436 12.284 55.5009 12.144C55.2583 11.9947 54.9083 11.8267 54.4509 11.64C54.0029 11.444 53.6249 11.2527 53.3169 11.066C53.0183 10.87 52.7849 10.6413 52.6169 10.38C52.4583 10.1093 52.3789 9.764 52.3789 9.344C52.3789 8.69067 52.6309 8.19133 53.1349 7.846C53.6389 7.49133 54.2969 7.314 55.1089 7.314C55.5569 7.314 55.9723 7.36067 56.3549 7.454C56.7376 7.538 57.1109 7.66867 57.4749 7.846L57.0129 8.98C56.7983 8.87733 56.5789 8.79333 56.3549 8.728C56.1403 8.65333 55.9256 8.59267 55.7109 8.546C55.4963 8.49933 55.2816 8.476 55.0669 8.476C54.6656 8.476 54.3623 8.546 54.1569 8.686C53.9516 8.826 53.8489 9.022 53.8489 9.274C53.8489 9.46067 53.8956 9.61933 53.9889 9.75C54.0916 9.88067 54.2643 10.0113 54.5069 10.142C54.7589 10.2727 55.1043 10.4267 55.5429 10.604C55.9816 10.7813 56.3549 10.9633 56.6629 11.15C56.9709 11.3367 57.2043 11.5653 57.3629 11.836C57.5216 12.1067 57.6009 12.452 57.6009 12.872ZM62.3187 13.936C62.5147 13.936 62.706 13.9173 62.8927 13.88C63.0794 13.8427 63.2427 13.8007 63.3827 13.754V14.874C63.224 14.9487 63.014 15.0093 62.7527 15.056C62.5007 15.112 62.2347 15.14 61.9547 15.14C61.5627 15.14 61.2034 15.07 60.8767 14.93C60.55 14.79 60.2887 14.5473 60.0927 14.202C59.8967 13.8567 59.7987 13.376 59.7987 12.76V8.588H58.8327V7.916L59.8687 7.356L60.3867 5.76H61.3247V7.454H63.3267V8.588H61.3247V12.732C61.3247 13.1427 61.418 13.446 61.6047 13.642C61.7914 13.838 62.0294 13.936 62.3187 13.936ZM71.5473 11.22C71.5473 11.8453 71.468 12.4007 71.3093 12.886C71.1507 13.3713 70.922 13.782 70.6233 14.118C70.334 14.454 69.9793 14.7107 69.5593 14.888C69.1393 15.056 68.668 15.14 68.1453 15.14C67.6693 15.14 67.226 15.056 66.8153 14.888C66.4047 14.7107 66.05 14.454 65.7513 14.118C65.4527 13.782 65.2193 13.3713 65.0513 12.886C64.8927 12.4007 64.8133 11.8407 64.8133 11.206C64.8133 10.3753 64.9487 9.67067 65.2193 9.092C65.49 8.51333 65.8773 8.07467 66.3813 7.776C66.8947 7.468 67.5013 7.314 68.2013 7.314C68.8547 7.314 69.4333 7.468 69.9373 7.776C70.4413 8.07467 70.8333 8.51333 71.1133 9.092C71.4027 9.67067 71.5473 10.38 71.5473 11.22ZM66.3813 11.22C66.3813 11.78 66.442 12.2653 66.5633 12.676C66.694 13.0773 66.89 13.3853 67.1513 13.6C67.422 13.8147 67.7627 13.922 68.1733 13.922C68.5933 13.922 68.934 13.8147 69.1953 13.6C69.466 13.3853 69.662 13.0773 69.7833 12.676C69.914 12.2653 69.9793 11.78 69.9793 11.22C69.9793 10.6413 69.914 10.156 69.7833 9.764C69.6527 9.372 69.4567 9.07333 69.1953 8.868C68.934 8.65333 68.5887 8.546 68.1593 8.546C67.534 8.546 67.0813 8.77933 66.8013 9.246C66.5213 9.71267 66.3813 10.3707 66.3813 11.22ZM77.2897 7.314C77.4111 7.314 77.5464 7.32333 77.6957 7.342C77.8451 7.35133 77.9711 7.36533 78.0737 7.384L77.9197 8.77C77.8171 8.742 77.7004 8.71867 77.5697 8.7C77.4391 8.68133 77.3084 8.672 77.1777 8.672C76.9257 8.672 76.6831 8.728 76.4497 8.84C76.2164 8.94267 76.0064 9.09667 75.8197 9.302C75.6331 9.498 75.4837 9.74067 75.3717 10.03C75.2597 10.3193 75.2037 10.6507 75.2037 11.024V15H73.6917V7.454H74.8817L75.0777 8.798H75.1617C75.3017 8.52733 75.4744 8.28 75.6797 8.056C75.8944 7.832 76.1371 7.65467 76.4077 7.524C76.6784 7.384 76.9724 7.314 77.2897 7.314ZM78.7219 7.454H80.3459L81.7879 11.738C81.8626 11.9527 81.9279 12.1627 81.9839 12.368C82.0492 12.5733 82.1006 12.7787 82.1379 12.984C82.1846 13.18 82.2219 13.376 82.2499 13.572H82.2919C82.3386 13.3293 82.4039 13.0447 82.4879 12.718C82.5719 12.382 82.6652 12.0507 82.7679 11.724L84.1399 7.454H85.7779L82.7539 16.022C82.5766 16.5073 82.3619 16.9227 82.1099 17.268C81.8672 17.6227 81.5686 17.8933 81.2139 18.08C80.8686 18.2667 80.4532 18.36 79.9679 18.36C79.7626 18.36 79.5759 18.346 79.4079 18.318C79.2492 18.2993 79.1092 18.276 78.9879 18.248V17.072C79.0812 17.0907 79.1979 17.1093 79.3379 17.128C79.4779 17.1467 79.6226 17.156 79.7719 17.156C80.0426 17.156 80.2759 17.1 80.4719 16.988C80.6679 16.876 80.8312 16.7173 80.9619 16.512C81.0926 16.316 81.1999 16.0827 81.2839 15.812L81.5639 15L78.7219 7.454Z" fill="#2D2D2D"/>
<rect x="50" y="2" width="36" height="2" fill="#2D2D2D"/>
</svg>
