<svg width="33" height="27" viewBox="0 0 33 27" fill="none" xmlns="http://www.w3.org/2000/svg">
<g id="heart">
<path id="heart_2" fill-rule="evenodd" clip-rule="evenodd" d="M6.88518 1.12818C4.56489 1.65237 2.55882 3.69721 1.42183 5.48391L1.39236 5.53022L1.35355 5.56903L0.853553 6.06903C0.658291 6.26429 0.341709 6.26429 0.146447 6.06903C-0.0488155 5.87376 -0.0488155 5.55718 0.146447 5.36192L0.608047 4.90032C1.81082 3.02907 3.99073 0.756876 6.66482 0.152763C8.03338 -0.156414 9.51495 -0.0233917 11.0187 0.802178C12.469 1.59835 13.9127 3.02308 15.3038 5.25528C15.364 5.22955 15.4304 5.21531 15.5 5.21531H17.5L17.5083 5.21538L17.608 5.11565C18.8108 3.2444 20.9907 0.972208 23.6648 0.368096C25.0334 0.0589184 26.5149 0.19194 28.0187 1.01751C29.4186 1.78604 30.8125 3.14024 32.1587 5.24104C32.3571 5.30738 32.5 5.49465 32.5 5.71531V5.92172C32.5001 5.92747 32.5001 5.93321 32.5 5.93894V6.21531V6.71531V10.2153V10.4224L32.3536 10.5689L16.3536 26.5689L15.9585 26.9639L15.6096 26.5277L11.6096 21.5277L11.33 21.1782L11.6464 20.8618L21.6464 10.8618C21.8417 10.6665 22.1583 10.6665 22.3536 10.8618C22.5488 11.057 22.5488 11.3736 22.3536 11.5689L12.67 21.2524L16.0415 25.4667L31.5 10.0082V6.71531V6.21531V6.07188C30.1532 3.89124 28.8069 2.59097 27.5375 1.8941C26.2559 1.1905 25.025 1.08602 23.8852 1.34351C21.5649 1.8677 19.5588 3.91254 18.4218 5.69924L18.3924 5.74555L18.3536 5.78436L17.8536 6.28436C17.6583 6.47962 17.3417 6.47962 17.1464 6.28436C17.1248 6.26272 17.1056 6.2396 17.0887 6.21531H15.5C15.409 6.21531 15.3236 6.19097 15.2501 6.14845C15.0155 6.28403 14.7145 6.20804 14.5729 5.97545C13.2019 3.72302 11.8298 2.38821 10.5375 1.67877C9.25589 0.975171 8.02495 0.870693 6.88518 1.12818Z" fill="#00C6BE"/>
</g>
</svg>
