<svg width="57" height="9" viewBox="0 0 57 9" fill="none" xmlns="http://www.w3.org/2000/svg">
<path d="M6.84229 7.52295C6.54932 7.77783 6.20068 7.98291 5.79639 8.13818C5.39502 8.29639 4.94678 8.37549 4.45166 8.37549C4.00928 8.37549 3.57422 8.30371 3.14648 8.16016C2.71875 8.01953 2.3335 7.8042 1.99072 7.51416C1.65088 7.22412 1.37695 6.86377 1.16895 6.43311C0.960938 5.99951 0.856934 5.48975 0.856934 4.90381C0.856934 4.40283 0.950684 3.9165 1.13818 3.44482C1.32568 2.97314 1.59375 2.55273 1.94238 2.18359C2.2793 1.82324 2.69531 1.5332 3.19043 1.31348C3.68848 1.09082 4.23047 0.979492 4.81641 0.979492C5.32324 0.979492 5.7627 1.06152 6.13477 1.22559C6.50684 1.38672 6.81152 1.60059 7.04883 1.86719C7.28613 2.13086 7.46338 2.43408 7.58057 2.77686C7.70068 3.11963 7.76074 3.47705 7.76074 3.84912C7.76074 4.54053 7.56738 5.13965 7.18066 5.64648C6.79688 6.15039 6.29736 6.40234 5.68213 6.40234C5.43311 6.40234 5.22217 6.34082 5.04932 6.21777C4.87646 6.0918 4.77979 5.91602 4.75928 5.69043L4.72852 5.68164C4.58789 5.89551 4.42676 6.06689 4.24512 6.1958C4.06641 6.32178 3.88477 6.38477 3.7002 6.38477C3.58008 6.38477 3.45703 6.36572 3.33105 6.32764C3.20801 6.28662 3.09814 6.2207 3.00146 6.12988C2.90479 6.0332 2.82715 5.90723 2.76855 5.75195C2.71289 5.59668 2.68506 5.40479 2.68506 5.17627C2.68506 4.9624 2.7334 4.72363 2.83008 4.45996C2.92969 4.19336 3.06299 3.93994 3.22998 3.69971C3.39697 3.45654 3.6123 3.24561 3.87598 3.06689C4.14258 2.88818 4.42969 2.79883 4.7373 2.79883C4.90137 2.79883 5.04639 2.8457 5.17236 2.93945C5.30127 3.03027 5.38037 3.16504 5.40967 3.34375H5.43604L5.625 2.85156H6.27979L5.44922 5.21582C5.42285 5.28906 5.40088 5.37402 5.3833 5.4707C5.36865 5.56445 5.36133 5.63916 5.36133 5.69482C5.36133 5.84424 5.39941 5.9541 5.47559 6.02441C5.55176 6.0918 5.6499 6.12549 5.77002 6.12549C6.22412 6.12549 6.60352 5.91309 6.9082 5.48828C7.21289 5.06055 7.36523 4.49805 7.36523 3.80078C7.36523 3.45508 7.31104 3.13574 7.20264 2.84277C7.09424 2.54688 6.92871 2.28613 6.70605 2.06055C6.49219 1.83789 6.22266 1.66211 5.89746 1.5332C5.57227 1.4043 5.2002 1.33984 4.78125 1.33984C4.38281 1.33984 3.99463 1.41748 3.6167 1.57275C3.23877 1.72803 2.89453 1.95654 2.58398 2.2583C2.28223 2.55127 2.0376 2.91602 1.8501 3.35254C1.6626 3.78906 1.56885 4.28271 1.56885 4.8335C1.56885 5.36377 1.64209 5.83105 1.78857 6.23535C1.93506 6.63672 2.1416 6.97363 2.4082 7.24609C2.66895 7.50977 2.97656 7.70752 3.33105 7.83936C3.68555 7.97119 4.06934 8.03711 4.48242 8.03711C4.94824 8.03711 5.36279 7.97412 5.72607 7.84814C6.08936 7.72217 6.41602 7.53906 6.70605 7.29883L6.84229 7.52295ZM5.31299 3.73926C5.27197 3.50195 5.20605 3.3291 5.11523 3.2207C5.02441 3.1123 4.89111 3.05811 4.71533 3.05811C4.52783 3.05811 4.35498 3.13428 4.19678 3.28662C4.0415 3.43604 3.90967 3.61475 3.80127 3.82275C3.68701 4.03955 3.59766 4.27686 3.5332 4.53467C3.47168 4.78955 3.44092 5.02539 3.44092 5.24219C3.44092 5.56152 3.48047 5.771 3.55957 5.87061C3.6416 5.96729 3.73096 6.01562 3.82764 6.01562C4.06787 6.01562 4.26562 5.9292 4.4209 5.75635C4.5791 5.58057 4.70801 5.40332 4.80762 5.22461L5.31299 3.73926ZM17.1874 0.76416L17.1214 1.0542C17.1068 1.0542 17.0511 1.06006 16.9545 1.07178C16.8578 1.08057 16.7626 1.09521 16.6688 1.11572C16.5516 1.14209 16.4374 1.17871 16.326 1.22559C16.2176 1.26953 16.1151 1.33398 16.0184 1.41895C15.6346 1.76172 15.2215 2.13086 14.7792 2.52637C14.3368 2.91895 13.9222 3.27197 13.5355 3.58545C13.7963 3.99268 14.0467 4.39551 14.287 4.79395C14.5301 5.19238 14.7645 5.58496 14.9901 5.97168C15.0721 6.1123 15.1629 6.23682 15.2626 6.34521C15.3651 6.45361 15.4632 6.53418 15.557 6.58691C15.6214 6.625 15.7123 6.6543 15.8295 6.6748C15.9466 6.69531 16.0419 6.70703 16.1151 6.70996L16.0404 7H14.454C14.2196 6.49316 13.9618 5.99365 13.6805 5.50146C13.3993 5.00928 13.0917 4.52148 12.7577 4.03809H12.516L12.0282 6.14307C12.0223 6.1665 12.0179 6.19141 12.015 6.21777C12.0121 6.24121 12.0106 6.26611 12.0106 6.29248C12.0106 6.36279 12.0209 6.41992 12.0414 6.46387C12.0619 6.50781 12.1088 6.54883 12.182 6.58691C12.2201 6.60742 12.3036 6.63232 12.4325 6.66162C12.5643 6.69092 12.6639 6.70703 12.7313 6.70996L12.6654 7H10.077L10.1429 6.70996C10.2162 6.7041 10.3172 6.69531 10.4462 6.68359C10.5751 6.67188 10.6688 6.6543 10.7274 6.63086C10.8329 6.58984 10.912 6.53271 10.9647 6.45947C11.0204 6.3833 11.0585 6.29395 11.079 6.19141L12.1293 1.64746C12.1351 1.62109 12.1395 1.59473 12.1424 1.56836C12.1454 1.54199 12.1468 1.51562 12.1468 1.48926C12.1468 1.4248 12.1337 1.36914 12.1073 1.32227C12.0809 1.27539 12.0384 1.2373 11.9798 1.20801C11.9271 1.17871 11.8465 1.14941 11.7381 1.12012C11.6327 1.08789 11.536 1.06592 11.4481 1.0542L11.514 0.76416H14.1024L14.0365 1.0542C13.9545 1.05713 13.849 1.07031 13.7201 1.09375C13.5912 1.11719 13.4945 1.13916 13.43 1.15967C13.3216 1.19482 13.2411 1.25488 13.1883 1.33984C13.1356 1.42188 13.0975 1.50977 13.0741 1.60352L12.5643 3.82275H12.6522C13.0712 3.52686 13.4842 3.20312 13.8915 2.85156C14.2987 2.5 14.6312 2.19238 14.889 1.92871C15.0472 1.76758 15.1673 1.63281 15.2494 1.52441C15.3343 1.41309 15.3768 1.32227 15.3768 1.25195C15.3768 1.19922 15.3255 1.15527 15.223 1.12012C15.1234 1.08496 14.9769 1.06299 14.7836 1.0542L14.8495 0.76416H17.1874ZM19.2969 6.41992H19.2662C19.2017 6.47266 19.1241 6.54004 19.0332 6.62207C18.9454 6.70117 18.8413 6.77734 18.7212 6.85059C18.607 6.92383 18.4825 6.98682 18.3477 7.03955C18.2129 7.09521 18.0664 7.12305 17.9082 7.12305C17.4834 7.12305 17.1495 6.9707 16.9063 6.66602C16.6661 6.36133 16.5459 5.94531 16.5459 5.41797C16.5459 5.05469 16.6133 4.70166 16.7481 4.35889C16.8829 4.01611 17.0689 3.7085 17.3062 3.43604C17.5318 3.17529 17.7998 2.96582 18.1104 2.80762C18.4209 2.64648 18.7403 2.56592 19.0684 2.56592C19.2764 2.56592 19.4742 2.59375 19.6617 2.64941C19.8521 2.70508 20.0015 2.76807 20.1099 2.83838L20.9141 2.63184L20.9668 2.69775L20.2989 5.53223C20.2754 5.62305 20.2505 5.73438 20.2242 5.86621C20.2007 5.99512 20.189 6.09033 20.189 6.15186C20.189 6.31885 20.2242 6.43164 20.2945 6.49023C20.3648 6.54883 20.4834 6.57812 20.6504 6.57812C20.7061 6.57812 20.7852 6.56934 20.8877 6.55176C20.9903 6.53418 21.0694 6.51514 21.125 6.49463L21.0591 6.77588C20.7954 6.88135 20.5992 6.95752 20.4703 7.00439C20.3413 7.05127 20.1846 7.07471 20 7.07471C19.7891 7.07471 19.6221 7.01318 19.4991 6.89014C19.376 6.76709 19.3086 6.61035 19.2969 6.41992ZM19.9253 3.64258C19.9253 3.5459 19.9151 3.45361 19.8946 3.36572C19.8741 3.27783 19.8316 3.1958 19.7671 3.11963C19.7085 3.04639 19.628 2.98779 19.5254 2.94385C19.4229 2.8999 19.294 2.87793 19.1387 2.87793C18.9248 2.87793 18.7168 2.94824 18.5147 3.08887C18.3125 3.22949 18.1309 3.41846 17.9698 3.65576C17.8174 3.87842 17.6929 4.14795 17.5962 4.46436C17.4995 4.78076 17.4512 5.10156 17.4512 5.42676C17.4512 5.60547 17.4615 5.76367 17.482 5.90137C17.5025 6.03906 17.542 6.16504 17.6006 6.2793C17.6563 6.39062 17.7369 6.47705 17.8423 6.53857C17.9478 6.6001 18.0811 6.63086 18.2422 6.63086C18.4063 6.63086 18.5777 6.58545 18.7564 6.49463C18.938 6.40088 19.1416 6.23828 19.3672 6.00684L19.9253 3.64258ZM25.924 3.06689C25.924 3.1958 25.8728 3.31592 25.7702 3.42725C25.6706 3.53564 25.5461 3.58984 25.3967 3.58984C25.3 3.58984 25.2048 3.57666 25.1111 3.55029C25.0173 3.52393 24.9148 3.48438 24.8034 3.43164C24.6423 3.52246 24.4753 3.63525 24.3025 3.77002C24.1325 3.90186 23.9465 4.06299 23.7444 4.25342C23.9113 4.68701 24.052 5.04297 24.1662 5.32129C24.2834 5.59668 24.383 5.82227 24.4651 5.99805C24.5705 6.21777 24.6863 6.37451 24.8122 6.46826C24.9411 6.55908 25.0818 6.60449 25.2341 6.60449C25.3044 6.60449 25.4011 6.59424 25.5241 6.57373C25.6472 6.55029 25.7424 6.52686 25.8098 6.50342L25.7439 6.79346C25.4714 6.90479 25.2575 6.97949 25.1023 7.01758C24.947 7.05566 24.7903 7.07471 24.6321 7.07471C24.4446 7.07471 24.2834 7.02344 24.1487 6.9209C24.0168 6.81543 23.8894 6.62646 23.7663 6.354C23.6462 6.09326 23.5393 5.83691 23.4455 5.58496C23.3518 5.33008 23.2595 5.08984 23.1687 4.86426L22.6545 5.30371L22.2766 7H21.4592L22.7644 1.34424C22.7849 1.25342 22.7981 1.19043 22.8039 1.15527C22.8127 1.12012 22.8171 1.07617 22.8171 1.02344C22.8171 0.917969 22.7995 0.837402 22.7644 0.781738C22.7292 0.723145 22.6794 0.679199 22.615 0.649902C22.5534 0.623535 22.4758 0.605957 22.3821 0.597168C22.2883 0.588379 22.1931 0.578125 22.0964 0.566406L22.1579 0.29834L23.7883 0.197266L23.8322 0.263184L22.76 4.83789H22.7776C23.1086 4.48047 23.4089 4.17139 23.6784 3.91064C23.9509 3.64697 24.2351 3.37891 24.531 3.10645C24.7419 2.91309 24.9089 2.78125 25.032 2.71094C25.155 2.6377 25.2868 2.60107 25.4275 2.60107C25.5769 2.60107 25.697 2.64355 25.7878 2.72852C25.8786 2.81055 25.924 2.92334 25.924 3.06689ZM28.851 6.41992H28.8202C28.7558 6.47266 28.6781 6.54004 28.5873 6.62207C28.4994 6.70117 28.3954 6.77734 28.2753 6.85059C28.161 6.92383 28.0365 6.98682 27.9018 7.03955C27.767 7.09521 27.6205 7.12305 27.4623 7.12305C27.0375 7.12305 26.7035 6.9707 26.4604 6.66602C26.2201 6.36133 26.1 5.94531 26.1 5.41797C26.1 5.05469 26.1674 4.70166 26.3021 4.35889C26.4369 4.01611 26.6229 3.7085 26.8603 3.43604C27.0858 3.17529 27.3539 2.96582 27.6645 2.80762C27.975 2.64648 28.2943 2.56592 28.6225 2.56592C28.8305 2.56592 29.0282 2.59375 29.2157 2.64941C29.4062 2.70508 29.5556 2.76807 29.664 2.83838L30.4682 2.63184L30.5209 2.69775L29.8529 5.53223C29.8295 5.62305 29.8046 5.73438 29.7782 5.86621C29.7548 5.99512 29.7431 6.09033 29.7431 6.15186C29.7431 6.31885 29.7782 6.43164 29.8485 6.49023C29.9188 6.54883 30.0375 6.57812 30.2045 6.57812C30.2602 6.57812 30.3393 6.56934 30.4418 6.55176C30.5443 6.53418 30.6234 6.51514 30.6791 6.49463L30.6132 6.77588C30.3495 6.88135 30.1532 6.95752 30.0243 7.00439C29.8954 7.05127 29.7387 7.07471 29.5541 7.07471C29.3432 7.07471 29.1762 7.01318 29.0531 6.89014C28.9301 6.76709 28.8627 6.61035 28.851 6.41992ZM29.4794 3.64258C29.4794 3.5459 29.4691 3.45361 29.4486 3.36572C29.4281 3.27783 29.3856 3.1958 29.3212 3.11963C29.2626 3.04639 29.182 2.98779 29.0795 2.94385C28.977 2.8999 28.848 2.87793 28.6928 2.87793C28.4789 2.87793 28.2709 2.94824 28.0688 3.08887C27.8666 3.22949 27.685 3.41846 27.5238 3.65576C27.3715 3.87842 27.247 4.14795 27.1503 4.46436C27.0536 4.78076 27.0053 5.10156 27.0053 5.42676C27.0053 5.60547 27.0155 5.76367 27.036 5.90137C27.0565 6.03906 27.0961 6.16504 27.1547 6.2793C27.2104 6.39062 27.2909 6.47705 27.3964 6.53857C27.5019 6.6001 27.6352 6.63086 27.7963 6.63086C27.9604 6.63086 28.1317 6.58545 28.3104 6.49463C28.4921 6.40088 28.6957 6.23828 28.9213 6.00684L29.4794 3.64258ZM35.3111 4.29297C35.3111 4.63867 35.2525 4.98438 35.1353 5.33008C35.0181 5.67578 34.8482 5.979 34.6256 6.23975C34.4 6.50928 34.1275 6.72607 33.8082 6.89014C33.4918 7.05127 33.1241 7.13184 32.7052 7.13184C32.2188 7.13184 31.8233 6.9751 31.5186 6.66162C31.2169 6.34814 31.066 5.92627 31.066 5.396C31.066 5.00635 31.1304 4.64307 31.2594 4.30615C31.3883 3.96924 31.5611 3.67334 31.7779 3.41846C31.9976 3.16357 32.2686 2.9585 32.5909 2.80322C32.9161 2.64502 33.2677 2.56592 33.6456 2.56592C34.1671 2.56592 34.5743 2.72559 34.8673 3.04492C35.1632 3.36133 35.3111 3.77734 35.3111 4.29297ZM34.4146 4.12598C34.4146 3.70996 34.3399 3.39795 34.1905 3.18994C34.044 2.98193 33.8316 2.87793 33.5533 2.87793C33.3101 2.87793 33.0802 2.95264 32.8634 3.10205C32.6495 3.25146 32.4649 3.49463 32.3096 3.83154C32.1895 4.08643 32.1016 4.37061 32.046 4.68408C31.9903 4.99463 31.9625 5.28174 31.9625 5.54541C31.9625 5.96436 32.0343 6.28223 32.1778 6.49902C32.3243 6.71289 32.544 6.81982 32.837 6.81982C33.0977 6.81982 33.3292 6.73779 33.5313 6.57373C33.7335 6.40967 33.8975 6.20166 34.0235 5.94971C34.1495 5.70361 34.2462 5.42236 34.3136 5.10596C34.3809 4.78662 34.4146 4.45996 34.4146 4.12598ZM40.1894 7.14502C39.8701 7.14502 39.5683 7.08936 39.2841 6.97803C38.9999 6.8667 38.7524 6.7041 38.5414 6.49023C38.3276 6.27344 38.1591 6.01123 38.0361 5.70361C37.916 5.396 37.8559 5.04883 37.8559 4.66211C37.8559 4.1084 37.9496 3.59131 38.1371 3.11084C38.3246 2.63037 38.5825 2.20117 38.9106 1.82324C39.227 1.45996 39.6064 1.16846 40.0488 0.94873C40.4941 0.729004 40.9584 0.619141 41.4418 0.619141C41.808 0.619141 42.1288 0.661621 42.4042 0.746582C42.6826 0.831543 42.9111 0.937012 43.0898 1.06299L43.3359 0.76416H43.6874L43.2128 2.98779H42.8525V2.81201C42.8525 2.57178 42.8334 2.34326 42.7954 2.12646C42.7573 1.90674 42.684 1.70898 42.5756 1.5332C42.4702 1.36328 42.3251 1.22852 42.1406 1.12891C41.9589 1.02637 41.726 0.975098 41.4418 0.975098C41.0815 0.975098 40.746 1.07178 40.4355 1.26514C40.1279 1.45557 39.8613 1.71045 39.6357 2.02979C39.413 2.34033 39.2343 2.72266 39.0996 3.17676C38.9648 3.63086 38.8974 4.09375 38.8974 4.56543C38.8974 5.18945 39.0497 5.69629 39.3544 6.08594C39.6621 6.47266 40.0737 6.66602 40.5893 6.66602C41.02 6.66602 41.4155 6.53857 41.7758 6.28369C42.1391 6.02881 42.435 5.6875 42.6635 5.25977L42.9799 5.42676C42.6108 6.05664 42.1992 6.50049 41.7451 6.7583C41.291 7.01611 40.7724 7.14502 40.1894 7.14502ZM47.5592 4.29297C47.5592 4.63867 47.5006 4.98438 47.3834 5.33008C47.2662 5.67578 47.0963 5.979 46.8737 6.23975C46.6481 6.50928 46.3756 6.72607 46.0563 6.89014C45.7399 7.05127 45.3722 7.13184 44.9532 7.13184C44.4669 7.13184 44.0714 6.9751 43.7667 6.66162C43.465 6.34814 43.3141 5.92627 43.3141 5.396C43.3141 5.00635 43.3785 4.64307 43.5074 4.30615C43.6363 3.96924 43.8092 3.67334 44.026 3.41846C44.2457 3.16357 44.5167 2.9585 44.839 2.80322C45.1642 2.64502 45.5157 2.56592 45.8937 2.56592C46.4152 2.56592 46.8224 2.72559 47.1154 3.04492C47.4113 3.36133 47.5592 3.77734 47.5592 4.29297ZM46.6627 4.12598C46.6627 3.70996 46.588 3.39795 46.4386 3.18994C46.2921 2.98193 46.0797 2.87793 45.8014 2.87793C45.5582 2.87793 45.3282 2.95264 45.1114 3.10205C44.8976 3.25146 44.713 3.49463 44.5577 3.83154C44.4376 4.08643 44.3497 4.37061 44.2941 4.68408C44.2384 4.99463 44.2106 5.28174 44.2106 5.54541C44.2106 5.96436 44.2823 6.28223 44.4259 6.49902C44.5724 6.71289 44.7921 6.81982 45.0851 6.81982C45.3458 6.81982 45.5773 6.73779 45.7794 6.57373C45.9816 6.40967 46.1456 6.20166 46.2716 5.94971C46.3976 5.70361 46.4943 5.42236 46.5616 5.10596C46.629 4.78662 46.6627 4.45996 46.6627 4.12598ZM51.866 3.28223C51.866 3.36426 51.8543 3.45508 51.8309 3.55469C51.8074 3.65137 51.7737 3.73193 51.7298 3.79639C51.6771 3.87549 51.6185 3.93701 51.554 3.98096C51.4925 4.02197 51.4031 4.04248 51.2859 4.04248C51.1277 4.04248 51.0091 4.00293 50.93 3.92383C50.8509 3.84473 50.8113 3.75684 50.8113 3.66016C50.8113 3.56934 50.8333 3.46826 50.8772 3.35693C50.9212 3.24268 50.9666 3.12988 51.0135 3.01855C50.9783 3.01855 50.9197 3.02881 50.8377 3.04932C50.7586 3.06689 50.6619 3.10352 50.5477 3.15918C50.4334 3.21484 50.303 3.29834 50.1565 3.40967C50.013 3.521 49.8592 3.66895 49.6951 3.85352L48.9876 7H48.1702L48.8118 4.15234C48.8265 4.08203 48.847 3.97656 48.8733 3.83594C48.9026 3.69531 48.9173 3.59131 48.9173 3.52393C48.9173 3.35986 48.8895 3.25 48.8338 3.19434C48.7781 3.13867 48.6668 3.11084 48.4998 3.11084C48.4354 3.11084 48.3533 3.12256 48.2537 3.146C48.1541 3.1665 48.0765 3.18408 48.0208 3.19873L48.0867 2.91748C48.3152 2.81494 48.5174 2.73877 48.6932 2.68896C48.8689 2.63916 49.0198 2.61426 49.1458 2.61426C49.3802 2.61426 49.5472 2.67871 49.6468 2.80762C49.7464 2.93359 49.7962 3.12402 49.7962 3.37891H49.8226C50.1712 3.07715 50.4349 2.86621 50.6136 2.74609C50.7952 2.62598 50.9842 2.56592 51.1805 2.56592C51.2742 2.56592 51.365 2.57764 51.4529 2.60107C51.5408 2.62451 51.6155 2.66406 51.6771 2.71973C51.7415 2.78125 51.7884 2.85303 51.8177 2.93506C51.8499 3.01416 51.866 3.12988 51.866 3.28223ZM56.5464 4.24463C56.5464 4.63721 56.4775 5.00928 56.3398 5.36084C56.2021 5.7124 56.019 6.01709 55.7905 6.2749C55.5356 6.55908 55.2588 6.77002 54.9599 6.90771C54.664 7.04541 54.3594 7.11426 54.0459 7.11426C53.7939 7.11426 53.5874 7.0835 53.4263 7.02197C53.2651 6.96045 53.1216 6.88428 52.9956 6.79346L52.7407 7.94482C52.7231 8.01807 52.7085 8.08691 52.6968 8.15137C52.688 8.21582 52.6836 8.26709 52.6836 8.30518C52.6836 8.38428 52.7114 8.44727 52.7671 8.49414C52.8257 8.54102 52.8916 8.57471 52.9648 8.59521C53.0381 8.61865 53.1201 8.63623 53.2109 8.64795C53.3017 8.65967 53.3838 8.66846 53.457 8.67432L53.3955 8.95117H50.9741L51.0356 8.67432C51.1294 8.66846 51.2173 8.66113 51.2993 8.65234C51.3813 8.64355 51.459 8.62891 51.5322 8.6084C51.623 8.58203 51.6948 8.53223 51.7475 8.45898C51.8032 8.38867 51.8428 8.30078 51.8662 8.19531L52.7846 4.15234C52.8081 4.04102 52.8301 3.92969 52.8506 3.81836C52.8711 3.7041 52.8813 3.60596 52.8813 3.52393C52.8813 3.35986 52.855 3.25 52.8022 3.19434C52.7524 3.13867 52.6426 3.11084 52.4726 3.11084C52.4082 3.11084 52.3262 3.12402 52.2265 3.15039C52.1269 3.17383 52.0493 3.19287 51.9936 3.20752L52.0596 2.92627C52.2822 2.82666 52.4829 2.75049 52.6616 2.69775C52.8403 2.64209 52.9927 2.61426 53.1186 2.61426C53.3237 2.61426 53.479 2.66699 53.5845 2.77246C53.6899 2.875 53.7558 3.01855 53.7822 3.20312H53.8174C54.0166 3.01855 54.229 2.86621 54.4546 2.74609C54.6831 2.62598 54.9101 2.56592 55.1357 2.56592C55.581 2.56592 55.9267 2.71826 56.1728 3.02295C56.4219 3.32471 56.5464 3.73193 56.5464 4.24463ZM55.1753 6.05957C55.3247 5.81934 55.4389 5.54688 55.518 5.24219C55.6001 4.93457 55.6411 4.60938 55.6411 4.2666C55.6411 4.11133 55.6264 3.95605 55.5971 3.80078C55.5708 3.64258 55.5268 3.51221 55.4653 3.40967C55.4009 3.29541 55.313 3.20752 55.2016 3.146C55.0903 3.08154 54.9438 3.04932 54.7622 3.04932C54.6274 3.04932 54.478 3.09033 54.3139 3.17236C54.1528 3.25439 53.9551 3.4082 53.7207 3.63379L53.1582 6.12549C53.1787 6.29248 53.268 6.44922 53.4263 6.5957C53.5874 6.73926 53.7807 6.81104 54.0063 6.81104C54.2378 6.81104 54.4546 6.74365 54.6567 6.60889C54.8589 6.47412 55.0317 6.29102 55.1753 6.05957Z" fill="#2D2D2D"/>
</svg>
