<svg width="24" height="24" viewBox="0 0 24 24" fill="none" xmlns="http://www.w3.org/2000/svg">
<path d="M6.29767 13.7594C4.73557 12.1973 4.73557 9.66464 6.29767 8.10254L7.2612 7.13901C8.04225 6.35796 9.30858 6.35796 10.0896 7.13901L17.198 14.2473L11.9918 19.4535L6.29767 13.7594Z" fill="#00C6BE"/>
<path d="M17.6574 13.4863C19.2195 11.9242 19.2195 9.39151 17.6574 7.82941L17.0896 7.26163C16.3086 6.48058 15.0422 6.48058 14.2612 7.26163L7.12326 14.3996L11.9337 19.21L17.6574 13.4863Z" fill="#00C6BE"/>
<path d="M12.5 9.25L13.75 8C14.9926 6.75736 17.0074 6.75736 18.25 8V8C19.4926 9.24264 19.4926 11.2574 18.25 12.5L12 18.75L9.5 16.25L14.5 11.25M12.5 9.25L7.5 14.25L6 12.75C4.61929 11.3693 4.61929 9.13071 6 7.75V7.75C7.38071 6.36929 9.61929 6.36929 11 7.75L12.5 9.25Z" stroke="white"/>
</svg>
