<svg width="16" height="15" viewBox="0 0 16 15" fill="none" xmlns="http://www.w3.org/2000/svg">
<path id="Union" fill-rule="evenodd" clip-rule="evenodd" d="M8.48277 1.09959C10.0562 -0.572734 12.7824 -0.222062 14.4314 1.37372C16.0803 2.96951 16.142 5.61881 14.5685 7.29113L13.7724 8.13755L7.85092 14.25L5.16961 11.5307L11.1966 5.41821L10.3256 4.53478L4.29853 10.6473L2.67574 9.00147C2.62247 8.95094 2.57068 8.89892 2.51988 8.84489L2.49817 8.82188L2.41087 8.73334L2.41284 8.73134L1.71687 7.99147L7.9471 1.67287L7.94069 1.66637L8.48277 1.09959ZM1.27786 1.46077L1.39525 1.34721C2.90262 -0.111505 5.41672 -0.409652 7.03951 0.827456L0.880794 7.07352C-0.419412 5.3982 -0.274396 2.96301 1.27786 1.46077Z" fill="#3D3D3D"/>
</svg>
