<svg width="16" height="14" viewBox="0 0 16 14" fill="none" xmlns="http://www.w3.org/2000/svg">
<rect width="16" height="14" fill="#ADADAD"/>
<g id="Design Guide(&#236;&#153;&#132;&#235;&#163;&#140;)">
<path d="M-2127 -4043C-2127 -4044.1 -2126.1 -4045 -2125 -4045H1799C1800.1 -4045 1801 -4044.1 1801 -4043V6327C1801 6328.1 1800.1 6329 1799 6329H-2125C-2126.1 6329 -2127 6328.1 -2127 6327V-4043Z" fill="white"/>
<path d="M-2125 -4044H1799V-4046H-2125V-4044ZM1800 -4043V6327H1802V-4043H1800ZM1799 6328H-2125V6330H1799V6328ZM-2126 6327V-4043H-2128V6327H-2126ZM-2125 6328C-2125.55 6328 -2126 6327.55 -2126 6327H-2128C-2128 6328.66 -2126.66 6330 -2125 6330V6328ZM1800 6327C1800 6327.55 1799.55 6328 1799 6328V6330C1800.66 6330 1802 6328.66 1802 6327H1800ZM1799 -4044C1799.55 -4044 1800 -4043.55 1800 -4043H1802C1802 -4044.66 1800.66 -4046 1799 -4046V-4044ZM-2125 -4046C-2126.66 -4046 -2128 -4044.66 -2128 -4043H-2126C-2126 -4043.55 -2125.55 -4044 -2125 -4044V-4046Z" fill="black" fill-opacity="0.1"/>
<g id="Design Guide">
<g id="icn_heart">
<rect x="-23.5" y="-63.5" width="107" height="168" rx="4.5" stroke="#9747FF" stroke-dasharray="10 5"/>
<g id="Property 1=Variant5">
<path id="Rectangle 126" d="M2.19231 7.45631C0.914382 6.14457 0.690489 4.13249 1.6488 2.57191L2 2L3.86238 0.85643C4.65929 0.367098 5.6889 0.495312 6.34147 1.16514L13.0001 8.00001L7.79395 13.2062L2.19231 7.45631Z" fill="#3D3D3D"/>
<path id="Rectangle 127" d="M13.7661 6.89477C15.2661 5.30659 15.1664 2.79547 13.5452 1.33122C12.79 0.649104 11.6369 0.663627 10.8992 1.36454L3.32149 8.56355L5.61296 10.8927L8 13L13.7661 6.89477Z" fill="#3D3D3D"/>
<path id="Vector 24" d="M8.5 3.25L9.75 2C10.9926 0.75736 13.0074 0.757359 14.25 2V2C15.4926 3.24264 15.4926 5.25736 14.25 6.5L8 12.75L5.5 10.25L10.5 5.25M8.5 3.25L3.5 8.25L2 6.75C0.619288 5.36929 0.619288 3.13071 2 1.75V1.75C3.38071 0.369288 5.61929 0.369289 7 1.75L8.5 3.25Z" stroke="white"/>
</g>
</g>
</g>
</g>
</svg>
