<svg width="16" height="15" viewBox="0 0 16 15" fill="none" xmlns="http://www.w3.org/2000/svg">
<path id="Vector" opacity="0.84" d="M7.85437 14.25L13.7473 8.25216L14.4892 7.47448C16.1676 5.71504 16.1018 2.91853 14.3428 1.24014C13.2857 0.231684 11.7146 -0.207461 10.2914 0.14109C9.36157 0.369006 8.57483 0.897793 7.91969 1.58393C7.93733 1.5558 7.51583 1.17148 7.46767 1.12857C6.73719 0.470568 5.79119 0.0738588 4.81039 0.0090122C2.61705 -0.135939 0.516207 1.48475 0.0861216 3.63613C0.0355794 3.8898 0.00697056 4.14823 0.0012488 4.40666C-0.0264064 5.58439 0.406063 6.70204 1.21903 7.55411L1.99338 8.36564L7.85437 14.25ZM2.41488 7.08111L2.08111 6.7316C1.48795 6.10984 1.1723 5.29401 1.19233 4.43479C1.23572 2.59811 2.93461 1.0971 4.75556 1.20724C5.70918 1.26494 6.43966 1.76082 7.0805 2.43218L2.41488 7.08111ZM9.17419 2.0555C9.41879 1.86811 9.67961 1.70313 9.96188 1.57487C10.7968 1.19628 11.7361 1.12094 12.591 1.48284C13.9247 2.04691 14.7367 3.63136 14.4158 5.04321C14.1011 6.42692 12.9463 7.4206 11.9874 8.38233C10.752 9.62157 9.51701 10.8608 8.28159 12.1C8.2444 12.1372 7.83672 12.5459 7.83672 12.5463C7.20256 11.9103 6.56792 11.2747 5.93376 10.6386C7.66984 8.90063 9.40592 7.16264 11.142 5.42466C10.8478 5.13047 10.5536 4.83627 10.2594 4.54208C8.52143 6.27911 6.78344 8.01662 5.04546 9.75365C4.45183 9.16145 3.85819 8.56924 3.26456 7.97704C4.48854 6.73542 5.713 5.4938 6.93698 4.25218C7.32081 3.86834 7.69797 3.47688 8.07322 3.08446C8.41558 2.72637 8.77366 2.36113 9.17419 2.05502V2.0555Z" fill="#3D3D3D"/>
</svg>
